<svg viewBox="66.56 94.208 378.88 417.792" xmlns="http://www.w3.org/2000/svg" style="max-height: 500px" width="378.88" height="417.792">
	<title>HTML5 Logo</title>
	<path d="M108.4 0h23v22.8h21.2V0h23v69h-23V46h-21v23h-23.2M206 23h-20.3V0h63.7v23H229v46h-23M259.5 0h24.1l14.8 24.3L313.2 0h24.1v69h-23V34.8l-16.1 24.8l-16.1-24.8v34.2h-22.6M348.7 0h23v46.2h32.6V69h-55.6"/>
	<path d="M107.6 471l-33-370.4h362.8l-33 370.2L255.7 512" fill="#e44d26" style="--darkreader-inline-fill: var(--darkreader-background-e44d26, #b03516);" data-darkreader-inline-fill=""/>
	<path d="M256 480.5V131H404.3L376 447" fill="#f16529" style="--darkreader-inline-fill: var(--darkreader-background-f16529, #b03d0c);" data-darkreader-inline-fill=""/>
	<path d="M142 176.3h114v45.4h-64.2l4.2 46.5h60v45.3H154.4M156.4 336.3H202l3.2 36.3 50.8 13.6v47.4l-93.2-26" fill="#ebebeb" style="--darkreader-inline-fill: var(--darkreader-background-ebebeb, #232628);" data-darkreader-inline-fill=""/>
	<path d="M369.6 176.3H255.8v45.4h109.6M361.3 268.2H255.8v45.4h56l-5.3 59-50.7 13.6v47.2l93-25.8" fill="#fff" style="--darkreader-inline-fill: var(--darkreader-background-ffffff, #181a1b);" data-darkreader-inline-fill=""/>
</svg>